<svg width="1056" height="320" viewBox="0 0 1056 320" fill="none" xmlns="http://www.w3.org/2000/svg">
<path fill-rule="evenodd" clip-rule="evenodd" d="M464.409 98.3745C454.207 98.3745 442.1 100.494 428.871 115.527V73.4584C428.871 62.8312 420.071 54.1863 409.252 54.1863C398.434 54.1863 389.634 62.8312 389.634 73.4584V210.648C389.634 221.276 398.434 229.92 409.252 229.92C420.071 229.92 428.871 221.276 428.871 210.648V157.402C428.871 142.095 436.27 133.642 449.751 133.642C462.952 133.642 469.902 141.847 469.902 157.402V210.648C469.902 221.276 478.703 229.92 489.521 229.92C500.34 229.92 509.14 221.276 509.14 210.648V146.224C509.112 116.27 492.408 98.3745 464.409 98.3745ZM577.079 99.311C561.104 99.311 548.436 101.348 536.02 105.919C529.574 108.286 525.258 114.398 525.258 121.116C525.258 130.091 532.517 137.112 541.793 137.112C543.699 137.112 545.297 136.837 547.483 136.121C555.022 133.808 562.982 132.707 571.866 132.707C592.942 132.707 597.427 144.132 597.483 153.796C590.168 151.456 580.947 149.308 568.083 149.308C534.562 149.308 515.336 164.368 515.336 190.661V191.129C515.336 214.889 533.497 230.857 560.515 230.857C575.734 230.857 587.926 226.314 597.651 217.009C599.304 223.809 605.947 229.948 616.149 229.948C626.883 229.948 635.291 221.799 635.291 211.392V154.594C635.291 136.726 630.526 122.961 621.081 113.71C611.328 104.157 596.53 99.311 577.079 99.311ZM571.39 203.243C560.263 203.243 553.368 198.067 553.368 189.725V189.257C553.368 179.318 561.833 173.646 576.603 173.646C584.17 173.646 591.709 175.106 597.959 177.749V183.007C597.959 194.901 587.029 203.243 571.39 203.243ZM687.868 115.859C698.014 104.103 710.514 98.376 725.985 98.376C755.497 98.376 785.346 121.034 785.346 164.369V164.837C785.346 184.798 779.096 201.702 767.297 213.761C756.506 224.801 741.848 230.858 725.985 230.858C710.71 230.858 698.575 225.737 688.065 214.835V247.873C688.065 258.5 679.264 267.145 668.446 267.145C657.627 267.145 648.827 258.5 648.827 247.873V118.584C648.827 107.957 657.627 99.312 668.446 99.312C678.339 99.312 686.523 106.525 687.868 115.859ZM746.136 164.369C746.136 145.675 733.496 131.552 716.736 131.552C699.864 131.552 687.588 145.345 687.588 164.369V164.837C687.588 183.862 699.836 197.655 716.736 197.655C733.776 197.655 746.136 183.862 746.136 164.837V164.369ZM871.556 98.376C856.085 98.376 843.585 104.103 833.439 115.859C832.094 106.525 823.91 99.312 814.017 99.312C803.198 99.312 794.398 107.957 794.398 118.584V247.873C794.398 258.5 803.198 267.145 814.017 267.145C824.835 267.145 833.636 258.5 833.636 247.873V214.835C844.146 225.737 856.281 230.858 871.556 230.858C887.419 230.858 902.077 224.801 912.867 213.761C924.667 201.702 930.917 184.798 930.917 164.837V164.369C930.917 121.034 901.068 98.376 871.556 98.376ZM862.307 131.552C879.067 131.552 891.707 145.675 891.707 164.369V164.837C891.707 183.862 879.347 197.655 862.307 197.655C845.407 197.655 833.159 183.862 833.159 164.837V164.369C833.159 145.345 845.435 131.552 862.307 131.552ZM1018.44 113.848C1022.09 104.322 1028.59 99.3113 1037.25 99.3113C1047.71 99.3113 1055.92 107.158 1055.89 117.124C1055.89 120.015 1054.94 124.2 1054.1 126.127L1009.84 230.527C998.714 256.985 987.111 266.373 965.502 266.373C957.879 266.373 952.021 265.382 945.295 263.014C940.67 261.362 932.879 257.067 932.879 246.881C932.879 236.859 940.923 230.885 948.686 230.885C951.769 230.885 953.619 231.408 955.104 231.904C958.159 232.84 959.841 233.225 962.167 233.225C968.053 233.225 970.519 232.289 973.49 226.7L974.387 224.608L931.337 126.623C930.356 124.2 929.319 120.456 929.319 117.84C929.319 107.268 937.643 99.2838 948.686 99.2838C957.795 99.2838 963.961 103.964 967.492 113.6L993.417 182.071L1018.44 113.848Z" fill="white"/>
<path d="M281.863 81.1017V193.712C281.863 238.407 244.75 274.643 198.974 274.643H190.59L147.777 316.419C146.1 318.056 143.78 319.093 141.209 319.093C138.834 319.093 136.682 318.247 135.033 316.828L134.307 316.118L134.279 316.091L91.8282 274.643H83.4164C37.6682 274.643 0.555542 238.407 0.555542 193.712V81.1017C0.555542 36.4068 37.6682 0.170654 83.4443 0.170654H198.974C244.75 0.170654 281.863 36.4068 281.863 81.1017Z" fill="#FFD666"/>
<path d="M66.0522 156.171C57.8918 156.171 53.2406 165.25 57.9753 171.806C76.385 197.342 106.826 213.992 141.223 213.992C175.619 213.992 206.033 197.315 224.442 171.806C229.177 165.25 224.526 156.171 216.366 156.171H66.0522Z" fill="white"/>
<path d="M113.846 117.525H64.6045V93.2769C64.6045 79.8914 75.6336 69.0293 89.225 69.0293C102.816 69.0293 113.846 79.8914 113.846 93.2769V117.525Z" fill="white"/>
<path d="M217.843 117.525H168.602V93.2769C168.602 79.8914 179.632 69.0293 193.223 69.0293C206.814 69.0293 217.843 79.8914 217.843 93.2769V117.525Z" fill="white"/>
</svg>
